<svg width="18" height="12" viewBox="0 0 18 12" fill="none" xmlns="http://www.w3.org/2000/svg">
<path d="M1.12753 7.51533C1.90388 3.78726 5.1493 1.13834 8.79996 1.13834C12.4495 1.13834 15.6949 3.78726 16.4724 7.51533C16.5032 7.66327 16.5915 7.79291 16.7179 7.87574C16.8442 7.95857 16.9984 7.9878 17.1463 7.95701C17.2942 7.92622 17.4239 7.83792 17.5067 7.71154C17.5895 7.58516 17.6188 7.43105 17.588 7.28311C16.7035 3.04279 13.0039 0 8.79996 0C4.59606 0 0.896451 3.04279 0.0119591 7.28311C-0.0188354 7.43105 0.010398 7.58516 0.0932285 7.71154C0.176059 7.83792 0.305701 7.92622 0.453636 7.95701C0.60157 7.9878 0.755679 7.95857 0.882059 7.87574C1.00844 7.79291 1.09674 7.66327 1.12753 7.51533ZM8.78858 3.41503C9.84525 3.41503 10.8586 3.83479 11.6058 4.58197C12.353 5.32915 12.7728 6.34255 12.7728 7.39922C12.7728 8.4559 12.353 9.46929 11.6058 10.2165C10.8586 10.9637 9.84525 11.3834 8.78858 11.3834C7.7319 11.3834 6.71851 10.9637 5.97132 10.2165C5.22414 9.46929 4.80438 8.4559 4.80438 7.39922C4.80438 6.34255 5.22414 5.32915 5.97132 4.58197C6.71851 3.83479 7.7319 3.41503 8.78858 3.41503Z" fill="#6A707C"/>
</svg>
